<svg xmlns="http://www.w3.org/2000/svg" viewBox="0 0 60 60" id="icon">
    <g fill="#e8c639">
        <path d="M48.237 12.22H42.31V9.482c0-.756-.612-1.367-1.368-1.367-.756 0-1.368.61-1.368 1.367v2.736h-8.206V9.482c0-.756-.612-1.367-1.368-1.367-.756 0-1.368.61-1.368 1.367v2.736h-8.207V9.482a1.366 1.366 0 0 0-2.735 0v2.736h-5.928a3.646 3.646 0 0 0-3.646 3.645v32.37a3.646 3.646 0 0 0 3.646 3.648h36.475a3.647 3.647 0 0 0 3.647-3.647v-32.37a3.646 3.646 0 0 0-3.647-3.647zm.912 36.016c0 .504-.41.912-.912.912H11.762a.912.912 0 0 1-.91-.912v-32.37c0-.502.408-.91.91-.91h5.928v2.734a1.367 1.367 0 0 0 2.735 0v-2.735h8.207v2.735c0 .756.612 1.367 1.368 1.367.756 0 1.368-.61 1.368-1.367v-2.735h8.206v2.735c0 .756.612 1.367 1.368 1.367.756 0 1.368-.61 1.368-1.367v-2.735h5.927c.502 0 .91.41.91.91v32.37z"></path>
        <path d="M17.69 24.53h5.47v4.1h-5.47zM17.69 31.367h5.47v4.104h-5.47zM17.69 38.206h5.47v4.103h-5.47zM27.264 38.206h5.47v4.103h-5.47zM27.264 31.367h5.47v4.104h-5.47zM27.264 24.53h5.47v4.1h-5.47zM36.84 38.206h5.47v4.103h-5.47zM36.84 31.367h5.47v4.104h-5.47zM36.84 24.53h5.47v4.1h-5.47z"></path>
    </g>
</svg>